<?xml version="1.0" encoding="utf-8"?>
<svg version="1.1" id="Layer_1" xmlns="http://www.w3.org/2000/svg" xmlns:xlink="http://www.w3.org/1999/xlink" x="0px" y="0px"
	 viewBox="0 0 841.9 595.3" style="enable-background:new 0 0 841.9 595.3;" xml:space="preserve">
<style type="text/css">
	.st0{fill:#FFFFFF;}
	.st1{fill:none;stroke:#000000;stroke-width:15;stroke-linecap:round;stroke-miterlimit:10;}
</style>
<path d="M394,410.2c4.7,0,9,0,13.9,0c0-54.2,0-108.1,0-162.3c34.6,0,68.7,0,103.3,0c0,54.2,0,108.1,0,162.9c7.2,0,13.1-0.4,19.3,0.1
	c7.5,0.5,13,6.4,13.6,13.6c0.6,7.6-4,14.2-11.3,16.2c-1.9,0.5-4,0.5-5.9,0.5c-70,0-140,0-210,0c-9.9,0-16.7-5.8-17-14.4
	c-0.3-9.4,5.9-15.7,16.3-16.4c1-0.1,2-0.1,3.4-0.1c0-50.1,0-100.1,0-151c2.2,1.1,3.6,1.7,4.9,2.5c21.8,12.8,43.6,25.7,65.5,38.4
	c3,1.8,4,3.7,4,7.1"/>
<path class="st0" d="M422.1,410.3c0-49.7,0-98.9,0-148.5c25,0,49.7,0,74.8,0c0,49.5,0,98.8,0,148.5
	C472.1,410.3,447.3,410.3,422.1,410.3z"/>
<line class="st1" x1="442.5" y1="283.2" x2="476.6" y2="283.2"/>
<line class="st1" x1="402.6" y1="224.1" x2="436.6" y2="224.1"/>
<line class="st1" x1="402.6" y1="197.6" x2="436.6" y2="197.6"/>
<line class="st1" x1="442.5" y1="313.2" x2="476.6" y2="313.2"/>
<line class="st1" x1="442.5" y1="343.3" x2="476.6" y2="343.3"/>
<line class="st1" x1="442.5" y1="373.3" x2="476.6" y2="373.3"/>
<path class="st0" d="M368.2,325.5c0-5.3,0-10.3,0-15.7c5.1,0,10.1,0,15.7,0c0,5.1,0,10.3,0,15.7
	C378.5,325.5,373.5,325.5,368.2,325.5z"/>
<path class="st0" d="M384,354c-5.5,0-10.4,0-15.7,0c0-5.3,0-10.3,0-15.7c5.2,0,10.3,0,15.7,0C384,343.6,384,348.6,384,354z"/>
<path class="st0" d="M384,410.3c-5.5,0-10.4,0-15.7,0c0-5.3,0-10.3,0-15.7c5.2,0,10.3,0,15.7,0C384,399.9,384,404.9,384,410.3z"/>
<path class="st0" d="M383.8,382.1c-5.2,0-10.1,0-15.4,0c0-5,0-10.1,0-15.5c4.9,0,9.9,0,15.4,0C383.8,371.5,383.8,376.5,383.8,382.1z
	"/>
<path class="st0" d="M328.2,325.5c0-5.3,0-10.3,0-15.7c5.1,0,10.1,0,15.7,0c0,5.1,0,10.3,0,15.7
	C338.6,325.5,333.5,325.5,328.2,325.5z"/>
<path class="st0" d="M328.2,297.5c0-5.3,0-10.3,0-15.7c5.1,0,10.1,0,15.7,0c0,5.1,0,10.3,0,15.7
	C338.6,297.5,333.5,297.5,328.2,297.5z"/>
<path class="st0" d="M344,354c-5.5,0-10.4,0-15.7,0c0-5.3,0-10.3,0-15.7c5.2,0,10.3,0,15.7,0C344,343.6,344,348.6,344,354z"/>
<path class="st0" d="M344,410.3c-5.5,0-10.4,0-15.7,0c0-5.3,0-10.3,0-15.7c5.2,0,10.3,0,15.7,0C344,399.9,344,404.9,344,410.3z"/>
<path class="st0" d="M343.9,382.1c-5.2,0-10.1,0-15.4,0c0-5,0-10.1,0-15.5c4.9,0,9.9,0,15.4,0C343.9,371.5,343.9,376.5,343.9,382.1z
	"/>
<path class="st0" d="M381.8,279.2c0-3.1,0-5,0-7c0-29.7,0-59.3,0-89c0-8.7,3.4-12.1,12.1-12.1c17,0,34,0,51,0
	c9.5,0,12.7,3.3,12.7,13.1c0,14.5,0,29,0,43.5c0,1.8,0.1,3.5,0.2,5.4c4.7,0,8.9,0,13.4,0c0-18.7,0.2-37-0.1-55.3
	c-0.2-12.1-9.1-20.5-21.2-20.5c-20.2-0.1-40.3-0.1-60.5,0c-12.6,0.1-21.5,8.8-21.5,21.4c-0.1,29.7-0.1,59.3,0,89
	c0,1.4,0.2,3.4,1.1,4C372.8,274.2,376.9,276.4,381.8,279.2z"/>
<path d="M457.6,184.3c0-9.7-3.2-13.1-12.7-13.1c-17,0-34,0-51,0c-8.7,0-12.1,3.3-12.1,12.1c0,29.7,0,59.3,0,89c0,1.9,0,3.9,0,7
	c-4.9-2.9-8.9-5-12.7-7.6c-0.9-0.6-1.1-2.6-1.1-4c-0.1-29.7-0.1-59.3,0-89c0-12.5,8.9-21.3,21.5-21.4c20.2-0.1,40.3-0.1,60.5,0
	c12.1,0,21,8.5,21.2,20.5c0.2,18.3,0.1,36.6,0.1,55.3c-4.5,0-8.7,0-13.4,0"/>
</svg>
