<svg version="1.1" id="Layer_1" xmlns="http://www.w3.org/2000/svg" xmlns:xlink="http://www.w3.org/1999/xlink" x="0px" y="0px"
	 viewBox="0 0 24 24" style="enable-background:new 0 0 24 24;" xml:space="preserve">
<style type="text/css">
	.st0{fill:#FFFFFF;}
	.st1{fill:none;stroke:#1D1D1B;stroke-width:1.0111;stroke-linecap:round;stroke-miterlimit:10;}
</style>
<g>
	<path d="M9.9,19.5c0.3,0,0.6,0,0.9,0c0-3.7,0-7.3,0-10.9c2.3,0,4.6,0,7,0c0,3.7,0,7.3,0,11c0.5,0,0.9,0,1.3,0
		c0.5,0,0.9,0.4,0.9,0.9c0,0.5-0.3,1-0.8,1.1c-0.1,0-0.3,0-0.4,0c-4.7,0-9.4,0-14.2,0c-0.7,0-1.1-0.4-1.1-1c0-0.6,0.4-1.1,1.1-1.1
		c0.1,0,0.1,0,0.2,0c0-3.4,0-6.7,0-10.2C5,9.4,5.1,9.4,5.2,9.5c1.5,0.9,2.9,1.7,4.4,2.6c0.2,0.1,0.3,0.3,0.3,0.5"/>
	<path class="st0" d="M11.8,19.5c0-3.4,0-6.7,0-10c1.7,0,3.3,0,5,0c0,3.3,0,6.7,0,10C15.1,19.5,13.5,19.5,11.8,19.5z"/>
	<line class="st1" x1="13.1" y1="10.9" x2="15.4" y2="10.9"/>
	<line class="st1" x1="10.5" y1="6.9" x2="12.7" y2="6.9"/>
	<line class="st1" x1="10.5" y1="5.1" x2="12.7" y2="5.1"/>
	<line class="st1" x1="13.1" y1="12.9" x2="15.4" y2="12.9"/>
	<line class="st1" x1="13.1" y1="15" x2="15.4" y2="15"/>
	<line class="st1" x1="13.1" y1="17" x2="15.4" y2="17"/>
	<path class="st0" d="M8.1,13.8c0-0.4,0-0.7,0-1.1c0.3,0,0.7,0,1.1,0c0,0.3,0,0.7,0,1.1C8.8,13.8,8.5,13.8,8.1,13.8z"/>
	<path class="st0" d="M9.2,15.7c-0.4,0-0.7,0-1.1,0c0-0.4,0-0.7,0-1.1c0.4,0,0.7,0,1.1,0C9.2,15,9.2,15.3,9.2,15.7z"/>
	<path class="st0" d="M9.2,19.5c-0.4,0-0.7,0-1.1,0c0-0.4,0-0.7,0-1.1c0.4,0,0.7,0,1.1,0C9.2,18.8,9.2,19.1,9.2,19.5z"/>
	<path class="st0" d="M9.2,17.6c-0.3,0-0.7,0-1,0c0-0.3,0-0.7,0-1c0.3,0,0.7,0,1,0C9.2,16.9,9.2,17.2,9.2,17.6z"/>
	<path class="st0" d="M5.4,13.8c0-0.4,0-0.7,0-1.1c0.3,0,0.7,0,1.1,0c0,0.3,0,0.7,0,1.1C6.1,13.8,5.8,13.8,5.4,13.8z"/>
	<path class="st0" d="M5.4,11.9c0-0.4,0-0.7,0-1.1c0.3,0,0.7,0,1.1,0c0,0.3,0,0.7,0,1.1C6.1,11.9,5.8,11.9,5.4,11.9z"/>
	<path class="st0" d="M6.5,15.7c-0.4,0-0.7,0-1.1,0c0-0.4,0-0.7,0-1.1c0.4,0,0.7,0,1.1,0C6.5,15,6.5,15.3,6.5,15.7z"/>
	<path class="st0" d="M6.5,19.5c-0.4,0-0.7,0-1.1,0c0-0.4,0-0.7,0-1.1c0.4,0,0.7,0,1.1,0C6.5,18.8,6.5,19.1,6.5,19.5z"/>
	<path class="st0" d="M6.5,17.6c-0.3,0-0.7,0-1,0c0-0.3,0-0.7,0-1c0.3,0,0.7,0,1,0C6.5,16.9,6.5,17.2,6.5,17.6z"/>
	<path class="st0" d="M9.1,10.7c0-0.2,0-0.3,0-0.5c0-2,0-4,0-6c0-0.6,0.2-0.8,0.8-0.8c1.1,0,2.3,0,3.4,0c0.6,0,0.9,0.2,0.9,0.9
		c0,1,0,2,0,2.9c0,0.1,0,0.2,0,0.4c0.3,0,0.6,0,0.9,0c0-1.3,0-2.5,0-3.7c0-0.8-0.6-1.4-1.4-1.4c-1.4,0-2.7,0-4.1,0
		C8.7,2.4,8.1,3,8.1,3.9c0,2,0,4,0,6c0,0.1,0,0.2,0.1,0.3C8.5,10.3,8.7,10.5,9.1,10.7z"/>
	<path d="M14.2,4.2c0-0.7-0.2-0.9-0.9-0.9c-1.1,0-2.3,0-3.4,0c-0.6,0-0.8,0.2-0.8,0.8c0,2,0,4,0,6c0,0.1,0,0.3,0,0.5
		c-0.3-0.2-0.6-0.3-0.9-0.5c-0.1,0-0.1-0.2-0.1-0.3c0-2,0-4,0-6c0-0.8,0.6-1.4,1.5-1.4c1.4,0,2.7,0,4.1,0c0.8,0,1.4,0.6,1.4,1.4
		c0,1.2,0,2.5,0,3.7c-0.3,0-0.6,0-0.9,0"/>
</g>
</svg>
