<?xml version="1.0" encoding="utf-8"?>
<!-- Generator: Adobe Illustrator 22.0.1, SVG Export Plug-In . SVG Version: 6.00 Build 0)  -->
<svg version="1.1" id="Layer_1" xmlns="http://www.w3.org/2000/svg" xmlns:xlink="http://www.w3.org/1999/xlink" x="0px" y="0px"
	 viewBox="0 0 382.4 300.6" style="enable-background:new 0 0 382.4 300.6;" xml:space="preserve">
<style type="text/css">
	.arl-circle-fprs-st0{opacity:0.25;fill:none;}
	.arl-circle-fprs-st1{opacity:0.25;fill:#7BA4A8;}
	.arl-circle-fprs-st2{opacity:0.25;fill:#E7192A;}
	.arl-circle-fprs-st3{opacity:0.25;fill:#0F1A98;}
	.arl-circle-fprs-st4{opacity:0.25;fill:#FF5423;}
	.arl-circle-fprs-st5{fill:#F9BE3C;}
	.arl-circle-fprs-st6{opacity:0.25;fill:#A5C05B;}
</style>
<circle class="arl-circle-fprs-st0" cx="191.2" cy="150.3" r="127.6"/>
<path class="arl-circle-fprs-st1" d="M80.7,86.5l110.5,63.8V22.8C144,22.8,102.8,48.4,80.7,86.5z"/>
<path class="arl-circle-fprs-st2" d="M191.2,22.8v127.5l110.5-63.8C278.1,45.7,235.2,22.8,191.2,22.8z"/>
<path class="arl-circle-fprs-st3" d="M301.7,86.5l-110.5,63.8l110.5,63.8C325.3,173.2,323.6,124.7,301.7,86.5z"/>
<path class="arl-circle-fprs-st4" d="M301.7,214.1l-110.5-63.8v127.5C238.4,277.8,279.6,252.2,301.7,214.1z"/>
<path class="arl-circle-fprs-st5" d="M191.2,300.6V150.3L61,225.5C88.8,273.6,139.3,300.6,191.2,300.6z"/>
<path class="arl-circle-fprs-st6" d="M80.7,214.1l110.5-63.8L80.7,86.5C57.1,127.4,58.8,175.9,80.7,214.1z"/>
</svg>
