<?xml version="1.0" encoding="utf-8"?>
<!-- Generator: Adobe Illustrator 22.0.1, SVG Export Plug-In . SVG Version: 6.00 Build 0)  -->
<svg version="1.1" id="Layer_1" xmlns="http://www.w3.org/2000/svg" xmlns:xlink="http://www.w3.org/1999/xlink" x="0px" y="0px"
	 viewBox="0 0 382.4 300.6" style="enable-background:new 0 0 382.4 300.6;" xml:space="preserve">
<style type="text/css">
	.st0{fill:#7BA4A8;}
	.st1{fill:#E7192A;}
	.st2{fill:#0F1A98;}
	.st3{fill:#FF5423;}
	.st4{fill:#F9BE3C;}
	.st5{fill:#A5C05B;}
</style>
<path class="st0" d="M61,75.1l130.2,75.2V0C135.6,0,87,30.2,61,75.1z"/>
<path class="st1" d="M191.2,0v150.3l130.2-75.2C293.6,27,243.1,0,191.2,0z"/>
<path class="st2" d="M321.4,75.1l-130.2,75.2l130.2,75.2C349.2,177.3,347.3,120.1,321.4,75.1z"/>
<path class="st3" d="M321.4,225.5l-130.2-75.2v150.3C246.8,300.6,295.4,270.4,321.4,225.5z"/>
<path class="st4" d="M191.2,300.6V150.3L61,225.5C88.8,273.6,139.3,300.6,191.2,300.6z"/>
<path class="st5" d="M61,225.5l130.2-75.2L61,75.1C33.2,123.3,35.1,180.5,61,225.5z"/>
</svg>
