<?xml version="1.0" encoding="utf-8"?>
<!-- Generator: Adobe Illustrator 22.0.1, SVG Export Plug-In . SVG Version: 6.00 Build 0)  -->
<svg version="1.1" id="Layer_1" xmlns="http://www.w3.org/2000/svg" xmlns:xlink="http://www.w3.org/1999/xlink" x="0px" y="0px"
	 viewBox="0 0 382.4 300.6" style="enable-background:new 0 0 382.4 300.6;" xml:space="preserve">
<style type="text/css">
	.arl-circle-fas-st0{opacity:0.25;fill:none;}
	.arl-circle-fas-st1{opacity:0.25;fill:#7BA4A8;}
	.arl-circle-fas-st2{opacity:0.25;fill:#E7192A;}
	.arl-circle-fas-st3{opacity:0.25;fill:#0F1A98;}
	.arl-circle-fas-st4{fill:#FF5423;}
	.arl-circle-fas-st5{opacity:0.25;fill:#F9BE3C;}
	.arl-circle-fas-st6{opacity:0.25;fill:#A5C05B;}
</style>
<circle class="arl-circle-fas-st0" cx="191.2" cy="150.3" r="127.6"/>
<path class="arl-circle-fas-st1" d="M80.7,86.5l110.5,63.8V22.8C144,22.8,102.8,48.4,80.7,86.5z"/>
<path class="arl-circle-fas-st2" d="M191.2,22.8v127.5l110.5-63.8C278.1,45.7,235.2,22.8,191.2,22.8z"/>
<path class="arl-circle-fas-st3" d="M301.7,86.5l-110.5,63.8l110.5,63.8C325.3,173.2,323.6,124.7,301.7,86.5z"/>
<path class="arl-circle-fas-st4" d="M321.4,225.5l-130.2-75.2v150.3C246.8,300.6,295.4,270.4,321.4,225.5z"/>
<path class="arl-circle-fas-st5" d="M191.2,277.8V150.3L80.7,214.1C104.3,254.9,147.2,277.8,191.2,277.8z"/>
<path class="arl-circle-fas-st6" d="M80.7,214.1l110.5-63.8L80.7,86.5C57.1,127.4,58.8,175.9,80.7,214.1z"/>
</svg>
